<svg width="220" height="220" viewBox="0 0 220 220" fill="none" xmlns="http://www.w3.org/2000/svg">
<path d="M193.732 45.1088C183.339 29.6076 165.704 18.5856 147.048 18.2996C128.392 18.0136 109.525 29.568 103.242 47.1416C100.162 55.704 100.078 65.0144 98.2784 73.9288C96.4788 82.8432 92.3076 92.1228 84.15 96.1488C73.0972 101.596 59.994 95.37 47.6916 95.9596C33.7656 96.624 21.12 106.806 16.2272 119.852C11.3344 132.898 13.706 148.122 21.1772 159.892C28.6484 171.662 40.7924 180.07 54.0408 184.413C67.2892 188.756 98.5116 191.281 112.328 189.424C118.844 189.156 125.303 188.089 131.56 186.248C150.559 180.602 166.025 171.116 178.882 157.78C194.207 141.874 203.764 120.613 205.907 98.6304C207.68 80.0536 204.12 60.61 193.732 45.1088Z" fill="#EBEBEB"/>
<path d="M207.139 204.059C207.139 204.125 163.645 204.173 110.005 204.173C56.3641 204.173 12.8613 204.125 12.8613 204.059C12.8613 203.993 56.3465 203.944 110.005 203.944C163.663 203.944 207.139 203.997 207.139 204.059Z" fill="#263238"/>
<path d="M40.761 192.632C41.201 191.013 40.1142 189.389 38.9262 188.232C37.7382 187.075 36.317 186.01 35.6966 184.457C34.6934 181.94 36.0398 178.684 34.3326 176.585C33.325 175.353 31.521 174.94 30.6278 173.62C30.2148 172.892 29.9417 172.094 29.8226 171.266C28.8732 167.085 26.8169 163.237 23.8694 160.125C23.6707 163.848 24.4777 167.557 26.2058 170.861C26.8966 172.181 27.7502 173.466 27.9658 174.94C28.3398 177.329 27.0022 179.78 27.5918 182.138C28.265 184.822 31.279 186.622 31.4198 189.385C31.543 191.721 29.5058 193.785 29.6598 196.108C29.7832 197.103 30.1438 198.054 30.7114 198.88C32.5154 201.885 35.173 203.953 39.1946 203.887L44.1226 204.059L40.761 192.632Z" fill="#0669B7"/>
<g opacity="0.3">
<path opacity="0.3" d="M40.761 192.632C41.201 191.013 40.1142 189.389 38.9262 188.232C37.7382 187.075 36.317 186.01 35.6966 184.457C34.6934 181.94 36.0398 178.684 34.3326 176.585C33.325 175.353 31.521 174.94 30.6278 173.62C30.2148 172.892 29.9417 172.094 29.8226 171.266C28.8732 167.085 26.8169 163.237 23.8694 160.125C23.6707 163.848 24.4777 167.557 26.2058 170.861C26.8966 172.181 27.7502 173.466 27.9658 174.94C28.3398 177.329 27.0022 179.78 27.5918 182.138C28.265 184.822 31.279 186.622 31.4198 189.385C31.543 191.721 29.5058 193.785 29.6598 196.108C29.7832 197.103 30.1438 198.054 30.7114 198.88C32.5154 201.885 35.173 203.953 39.1946 203.887L44.1226 204.059L40.761 192.632Z" fill="black"/>
</g>
<path d="M45.1171 204.16C45.5684 204.23 46.0284 204.221 46.4767 204.134C47.021 204.051 47.5559 203.915 48.0739 203.729C48.7893 203.48 49.4583 203.114 50.0539 202.646C50.4122 202.358 50.6922 201.984 50.8679 201.56C51.0151 201.083 51.0921 200.588 51.0967 200.09C51.1066 199.557 51.1463 199.026 51.2155 198.497C51.3082 197.935 51.5116 197.396 51.8139 196.913C52.3947 195.892 53.3627 194.924 53.6707 193.538C53.9787 192.152 53.7675 190.7 53.5387 189.222C53.3099 187.744 53.0987 186.142 53.6531 184.593C54.2075 183.044 55.2635 181.658 55.8047 179.925C56.3459 178.191 56.0907 176.282 56.2051 174.42C56.2389 173.475 56.4571 172.545 56.8475 171.684C57.2435 170.804 57.7979 169.99 58.2291 169.074C59.1091 167.218 59.2587 165.114 59.4963 163.051C59.6151 162.012 59.7295 160.961 59.8483 159.905C59.9232 158.837 60.1075 157.78 60.3983 156.75C60.7321 155.712 61.1259 154.694 61.5775 153.701C61.8101 153.187 62.0014 152.656 62.1495 152.112C62.2324 151.549 62.2853 150.983 62.3079 150.414C62.3604 149.276 62.3162 148.135 62.1759 147.004C62.0439 145.869 61.8371 144.742 61.7139 143.603C61.7139 143.532 61.7139 143.466 61.7139 143.405L61.6875 143.18L61.4895 143.277C60.4492 143.811 59.5458 144.577 58.8495 145.517C58.1666 146.437 57.617 147.448 57.2171 148.522C56.3943 150.638 56.0995 152.856 55.6859 154.972C55.2723 157.089 54.7443 159.17 53.6619 160.93C53.1207 161.81 52.4651 162.611 51.9019 163.464C51.2903 164.297 50.8724 165.257 50.6787 166.272C50.3839 168.357 51.5323 170.188 51.2947 172.036C51.1875 172.941 50.8874 173.813 50.4147 174.592C49.9747 175.38 49.4423 176.11 48.9407 176.84C48.4323 177.557 47.9905 178.318 47.6207 179.115C47.2727 179.895 47.067 180.731 47.0135 181.584C46.8947 183.247 47.1279 184.822 47.0135 186.309C46.8761 187.727 46.462 189.103 45.7947 190.362C45.2007 191.572 44.5363 192.667 43.9819 193.732C43.7047 194.26 43.4451 194.779 43.2339 195.303C43.034 195.805 42.8866 196.327 42.7939 196.86C42.6466 197.791 42.6348 198.738 42.7587 199.672C42.888 200.974 43.3753 202.216 44.1667 203.258C44.2877 203.416 44.4216 203.563 44.5671 203.698C44.6643 203.8 44.7719 203.891 44.8883 203.971C45.0731 204.107 45.1699 204.169 45.1699 204.169C44.8181 203.891 44.498 203.575 44.2151 203.227C43.4597 202.181 43.0033 200.949 42.8951 199.663C42.783 198.741 42.8038 197.808 42.9567 196.891C43.0493 196.371 43.1968 195.862 43.3967 195.373C43.6196 194.844 43.8708 194.327 44.1491 193.824C44.7079 192.768 45.3767 191.677 45.9839 190.458C46.6712 189.181 47.0988 187.779 47.2423 186.336C47.3743 184.818 47.1455 183.234 47.2687 181.614C47.3254 180.789 47.5264 179.981 47.8627 179.225C48.2347 178.445 48.6765 177.7 49.1827 176.999C49.6843 176.268 50.2167 175.538 50.6743 174.733C51.1765 173.924 51.4977 173.016 51.6159 172.071C51.8535 170.104 50.7139 168.265 51.0087 166.324C51.2016 165.354 51.6056 164.437 52.1923 163.64C52.7511 162.8 53.4111 161.999 53.9523 161.097C55.0743 159.289 55.6155 157.168 56.0247 155.043C56.4339 152.918 56.7375 150.718 57.5471 148.641C57.9365 147.597 58.4712 146.614 59.1355 145.719C59.8053 144.818 60.6741 144.083 61.6743 143.572L61.4499 143.444C61.4499 143.51 61.4499 143.576 61.4719 143.647C61.5951 144.8 61.8019 145.926 61.9119 147.052C62.0508 148.166 62.0935 149.289 62.0395 150.41C62.0172 150.96 61.9673 151.51 61.8899 152.055C61.7477 152.581 61.5623 153.095 61.3355 153.591C60.8815 154.594 60.4848 155.622 60.1475 156.671C59.8542 157.717 59.6685 158.79 59.5931 159.874C59.4787 160.934 59.3599 161.986 59.2455 163.024C59.0079 165.097 58.8539 167.165 58.0135 168.956C57.5735 169.836 57.0455 170.676 56.6363 171.574C56.2336 172.468 56.0094 173.432 55.9763 174.412C55.8663 176.312 56.1127 178.174 55.5979 179.854C55.0831 181.535 54.0139 182.934 53.4727 184.523C52.9315 186.111 53.1295 187.792 53.3671 189.266C53.6047 190.74 53.8423 192.192 53.5255 193.499C53.2087 194.806 52.3023 195.782 51.7127 196.83C51.4018 197.334 51.194 197.895 51.1011 198.48C51.0346 199.014 50.9994 199.552 50.9955 200.09C50.9962 200.576 50.925 201.059 50.7843 201.524C50.6213 201.927 50.3595 202.283 50.0231 202.558C49.4435 203.026 48.7909 203.394 48.0915 203.65C47.5803 203.847 47.0513 203.994 46.5119 204.09C46.1822 204.149 45.8481 204.182 45.5131 204.186C45.2359 204.16 45.1171 204.16 45.1171 204.16Z" fill="#263238"/>
<path d="M60.6836 146.124C60.6601 146.171 60.6438 146.221 60.6352 146.273L60.5296 146.713C60.4328 147.105 60.314 147.69 60.1292 148.421C59.9444 149.151 59.4912 149.978 59.1084 150.995C58.6601 152.139 58.2695 153.305 57.938 154.488C57.5596 155.808 57.2296 157.26 56.8776 158.827C56.5785 160.495 56.0483 162.114 55.3024 163.636C54.8976 164.437 54.4224 165.246 54.0836 166.135C53.7283 167.043 53.4903 167.992 53.3752 168.96C53.1249 170.965 52.7695 172.955 52.3104 174.922C51.3248 178.957 50.3832 182.802 49.5252 186.305C48.6672 189.807 47.8576 192.94 47.1888 195.589C46.52 198.238 46.014 200.35 45.6444 201.859C45.4728 202.58 45.3364 203.148 45.2396 203.566C45.2 203.746 45.1648 203.892 45.1384 204.006C45.1335 204.057 45.1335 204.109 45.1384 204.16C45.164 204.114 45.1832 204.065 45.1956 204.015C45.2264 203.896 45.2704 203.755 45.3232 203.575C45.4332 203.166 45.5872 202.598 45.7852 201.881C46.1812 200.385 46.74 198.26 47.4308 195.642C48.1216 193.024 48.9268 189.856 49.8288 186.375C50.7308 182.895 51.646 179.023 52.6404 174.984C53.0966 173.011 53.4433 171.015 53.6788 169.004C53.7912 168.059 54.0219 167.132 54.3652 166.245C54.7128 165.365 55.1572 164.578 55.562 163.768C56.442 162.162 56.7896 160.437 57.1372 158.884C57.4848 157.331 57.7928 155.861 58.1536 154.55C58.5144 153.239 58.8928 152.068 59.2712 151.056C59.6496 150.044 60.0676 149.208 60.248 148.452C60.4284 147.695 60.512 147.131 60.5912 146.727C60.6206 146.545 60.647 146.398 60.6704 146.287C60.6836 146.177 60.6924 146.124 60.6836 146.124Z" fill="#263238"/>
<path d="M45.9874 204.182C49.2038 202.268 50.1278 196.46 48.7858 192.966C47.4438 189.473 45.0942 186.278 44.7334 182.552C44.4518 179.687 45.3934 176.748 44.7334 173.95C43.8314 170.17 40.1442 167.244 40.1882 163.359C40.2102 161.181 41.451 159.13 41.3498 156.952C41.231 154.286 39.1806 152.165 37.9134 149.816C35.9686 146.212 35.841 141.957 35.1766 137.936C34.5122 133.914 32.9766 129.576 29.395 127.591C28.867 131.019 27.965 133.368 28.2466 138.01C28.3522 139.678 30.2882 142.85 30.5522 146.524C30.7106 148.724 30.8162 150.898 30.9526 153.08C31.089 155.263 31.221 157.375 31.9822 159.364C32.5674 160.89 33.5046 162.276 33.9402 163.852C34.7542 166.813 33.6806 170.012 34.3406 173.021C34.8994 175.564 36.6594 177.751 37.0202 180.33C37.5218 183.951 35.181 187.717 36.3778 191.171C36.9762 192.887 38.3842 194.251 38.7846 196.033C39.097 197.406 38.7582 198.862 39.0398 200.24C39.4798 202.466 43.7302 204.2 45.9962 204.054" fill="#0669B7"/>
<path d="M30.276 130.975C30.27 131.039 30.27 131.104 30.276 131.168C30.276 131.314 30.32 131.498 30.3464 131.732C30.4212 132.229 30.5048 132.955 30.672 133.896C30.8392 134.838 31.3408 135.903 31.728 137.188C32.1152 138.472 32.5464 139.942 32.9072 141.588C33.268 143.233 33.5848 145.068 33.906 147.035C34.2272 149.002 34.5792 151.144 35.556 153.195C35.996 154.22 36.5152 155.25 36.876 156.35C37.2457 157.476 37.4733 158.643 37.5536 159.826C37.7335 162.334 38.0493 164.831 38.4996 167.306C39.4852 172.383 40.4224 177.219 41.276 181.623C42.1296 186.028 42.9876 189.957 43.674 193.283C44.3604 196.61 44.9236 199.267 45.3152 201.142L45.7552 203.276C45.808 203.504 45.8476 203.685 45.8828 203.826C45.8947 203.89 45.9124 203.954 45.9356 204.015C45.9434 203.951 45.9434 203.886 45.9356 203.821C45.9092 203.676 45.8784 203.496 45.8388 203.262C45.742 202.752 45.6056 202.03 45.434 201.115C45.0644 199.236 44.554 196.552 43.8896 193.239C43.2252 189.926 42.4376 185.953 41.562 181.566C40.6864 177.179 39.802 172.326 38.812 167.253C38.3614 164.778 38.0441 162.281 37.8616 159.773C37.7778 158.566 37.5428 157.375 37.162 156.226C36.7704 155.109 36.2556 154.075 35.8024 153.054C34.8344 151.034 34.4824 148.927 34.148 146.969C33.8136 145.011 33.4924 143.172 33.1096 141.517C32.7268 139.863 32.3088 138.384 31.8776 137.117C31.4464 135.85 30.9668 134.776 30.7732 133.857C30.5796 132.937 30.4872 132.198 30.3948 131.71C30.3508 131.481 30.3156 131.296 30.2892 131.151C30.2883 131.092 30.2839 131.033 30.276 130.975Z" fill="#263238"/>
<path d="M63.8298 88.6073H89.2398C89.2398 88.6073 89.2398 67.2716 111.411 66.8932C122.926 66.6908 128.897 74.2368 131.326 80.014C134.142 86.724 133.288 94.3713 129.513 100.597C125.205 107.703 115.921 114.844 98.7966 111.826L98.6338 168.441H123.762V134.878C123.762 134.878 159.002 125.77 159.002 86.9176C159.002 49.7596 128.954 41.734 112.802 41.2148C103.817 40.9288 100.561 40.5416 89.4466 42.1212C75.283 44.1452 63.5306 60.5924 63.8298 88.6073Z" fill="#0669B7"/>
<path d="M124.067 180.242H98.5645V204.059H124.067V180.242Z" fill="#0669B7"/>
<path opacity="0.1" d="M124.067 180.242H98.5645V204.059H124.067V180.242Z" fill="black"/>
<path opacity="0.1" d="M63.8298 88.6073H89.2398C89.2398 88.6073 89.2398 67.2716 111.411 66.8932C122.926 66.6908 128.897 74.2368 131.326 80.014C134.142 86.724 133.288 94.3713 129.513 100.597C125.205 107.703 115.921 114.844 98.7966 111.826L98.6338 168.441H123.762V134.878C123.762 134.878 159.002 125.77 159.002 86.9176C159.002 49.7596 128.954 41.734 112.802 41.2148C103.817 40.9288 100.561 40.5416 89.4466 42.1212C75.283 44.1452 63.5306 60.5924 63.8298 88.6073Z" fill="black"/>
<path d="M53.3015 88.6074H78.7159C78.7159 88.6074 78.7159 67.2717 100.887 66.8933C112.402 66.6909 118.373 74.237 120.797 80.0142C123.618 86.7242 122.764 94.3714 118.989 100.597C114.681 107.703 105.235 114.163 88.1099 111.157V168.441H113.238V134.878C113.238 134.878 148.478 125.77 148.478 86.9177C148.478 49.7597 115.152 41.1313 100.892 41.1313C89.9843 41.1445 52.8219 43.7801 53.3015 88.6074Z" fill="#0669B7"/>
<path opacity="0.3" d="M53.3015 88.6074H78.7159C78.7159 88.6074 78.7159 67.2717 100.887 66.8933C112.402 66.6909 118.373 74.237 120.797 80.0142C123.618 86.7242 122.764 94.3714 118.989 100.597C114.681 107.703 105.235 114.163 88.1099 111.157V168.441H113.238V134.878C113.238 134.878 148.478 125.77 148.478 86.9177C148.478 49.7597 115.152 41.1313 100.892 41.1313C89.9843 41.1445 52.8219 43.7801 53.3015 88.6074Z" fill="black"/>
<path d="M113.541 180.242H88.0391V204.059H113.541V180.242Z" fill="#0669B7"/>
<path opacity="0.3" d="M113.541 180.242H88.0391V204.059H113.541V180.242Z" fill="black"/>
<path d="M103.756 67.0077C103.63 67.0185 103.504 67.0185 103.378 67.0077C103.127 67.0077 102.766 66.9241 102.295 66.9197C100.964 66.8543 99.6299 66.9103 98.3089 67.0869C96.35 67.3349 94.4226 67.7876 92.5581 68.4377C91.4591 68.8218 90.3886 69.2835 89.3549 69.8193C88.2376 70.3776 87.1854 71.0579 86.2177 71.8477C85.2567 72.6446 84.3954 73.5546 83.6525 74.5581C82.9484 75.4858 82.3061 76.4588 81.7297 77.4709C80.7675 79.1945 80.0043 81.022 79.4549 82.9181C79.0825 84.1977 78.8262 85.5084 78.6893 86.8341C78.6365 87.3005 78.6233 87.6701 78.6101 87.9165C78.6104 88.0434 78.5986 88.1702 78.5749 88.2949C78.5636 88.169 78.5636 88.0424 78.5749 87.9165C78.5749 87.6657 78.5749 87.2961 78.6145 86.8253C78.7157 85.4853 78.9501 84.1588 79.3141 82.8653C79.8433 80.9473 80.5965 79.0983 81.5581 77.3565C82.1357 76.3333 82.781 75.3499 83.4897 74.4129C84.2388 73.393 85.1107 72.4694 86.0857 71.6629C87.0652 70.8622 88.1307 70.1731 89.2625 69.6081C90.3027 69.0625 91.3805 68.5919 92.4877 68.2001C94.3691 67.5525 96.3149 67.1099 98.2913 66.8801C99.6211 66.7167 100.964 66.6857 102.3 66.7877C102.663 66.8109 103.024 66.855 103.382 66.9197C103.509 66.9402 103.634 66.9696 103.756 67.0077Z" fill="#263238"/>
<path d="M142.045 62.4801C142.045 62.4801 142.014 62.4493 141.961 62.3833C141.909 62.3173 141.829 62.2029 141.741 62.0753L140.901 60.8873C140.721 60.6321 140.527 60.3373 140.298 60.0337L139.506 59.0701L138.6 57.9569C138.27 57.5697 137.883 57.1957 137.495 56.7865C137.108 56.3773 136.712 55.9417 136.263 55.5237C135.815 55.1057 135.335 54.6789 134.842 54.2389C134.596 54.0189 134.354 53.7989 134.09 53.5657L133.271 52.9189C132.713 52.4789 132.158 52.0389 131.555 51.5989C128.928 49.7191 126.141 48.0731 123.226 46.6797L120.907 45.6325L118.606 44.7525C117.854 44.4401 117.088 44.2201 116.349 43.9737C115.61 43.7273 114.888 43.4765 114.149 43.3049L112.046 42.7549C111.364 42.5745 110.686 42.4645 110.039 42.3149C109.393 42.1653 108.768 42.0333 108.156 41.9585L106.396 41.7033C105.283 41.5141 104.262 41.4745 103.373 41.3865C102.933 41.3513 102.493 41.3029 102.128 41.2853L101.081 41.2589L99.629 41.2105H99.2507H99.123C99.1653 41.2039 99.2084 41.2039 99.2507 41.2105H99.629H101.081H102.133C102.515 41.2105 102.933 41.2633 103.382 41.2941C104.262 41.3689 105.301 41.3997 106.414 41.5801L108.174 41.8177C108.785 41.8881 109.41 42.0465 110.061 42.1653C110.713 42.2841 111.381 42.4073 112.081 42.6053L114.193 43.1509C114.923 43.3181 115.645 43.5909 116.393 43.8153C117.141 44.0397 117.902 44.2553 118.655 44.5897L120.969 45.4697L123.301 46.5213C126.231 47.9178 129.029 49.576 131.661 51.4757C132.268 51.9157 132.823 52.3865 133.381 52.8221L134.2 53.4161C134.464 53.6361 134.706 53.8561 134.952 54.0937L136.369 55.4137C136.809 55.8537 137.205 56.2937 137.597 56.6941C137.988 57.0945 138.362 57.4861 138.692 57.8777L139.572 58.9997L140.355 59.9765C140.58 60.2845 140.769 60.5837 140.945 60.8565C141.288 61.3713 141.557 61.7761 141.746 62.0665L141.953 62.3877C141.987 62.4144 142.018 62.4455 142.045 62.4801Z" fill="#263238"/>
<path d="M139.396 117.04C139.343 117.135 139.28 117.224 139.206 117.304L138.599 118.021C138.348 118.342 138.032 118.725 137.64 119.152C137.248 119.579 136.83 120.08 136.32 120.6C135.81 121.119 135.264 121.7 134.644 122.285C134.023 122.87 133.35 123.486 132.633 124.128C129.487 126.874 126.039 129.252 122.354 131.217C121.501 131.657 120.696 132.097 119.917 132.436C119.138 132.774 118.412 133.122 117.743 133.404C117.074 133.685 116.458 133.918 115.922 134.125C115.385 134.332 114.914 134.499 114.527 134.622L113.647 134.908C113.545 134.949 113.439 134.979 113.33 134.996C113.425 134.942 113.525 134.898 113.629 134.864L114.509 134.539C114.892 134.402 115.354 134.226 115.886 134.006C116.419 133.786 117.035 133.566 117.695 133.254C118.355 132.942 119.085 132.647 119.846 132.264C120.608 131.881 121.422 131.476 122.271 131.032C123.947 130.108 125.756 129.026 127.582 127.776C129.408 126.526 131.049 125.211 132.51 123.97C133.227 123.336 133.913 122.742 134.525 122.144C135.136 121.546 135.708 121.004 136.214 120.485C136.72 119.966 137.165 119.486 137.561 119.064C137.957 118.642 138.282 118.272 138.546 117.964L139.162 117.264C139.234 117.183 139.312 117.108 139.396 117.04Z" fill="#263238"/>
<path d="M112.795 166.443C112.729 166.443 112.676 159.377 112.676 150.66C112.676 141.944 112.729 134.873 112.795 134.873C112.861 134.873 112.909 141.94 112.909 150.66C112.909 159.381 112.856 166.443 112.795 166.443Z" fill="#263238"/>
<path d="M113.761 202.444C113.695 202.444 113.646 197.485 113.646 191.369C113.646 185.253 113.695 180.29 113.761 180.29C113.827 180.29 113.875 185.249 113.875 191.369C113.875 197.49 113.822 202.444 113.761 202.444Z" fill="#263238"/>
<path d="M138.777 85.2323C138.337 86.1123 139.978 86.8339 140.924 87.1199C141.889 87.3568 142.888 87.4253 143.876 87.3223C145.196 87.2519 146.547 87.1287 147.687 86.4775C148.685 85.8592 149.482 84.9652 149.983 83.9035C150.477 82.8452 150.868 81.7415 151.149 80.6079C151.149 80.6079 140.752 81.2855 138.777 85.2323Z" fill="#0669B7"/>
<g opacity="0.4">
<path opacity="0.4" d="M138.777 85.2323C138.337 86.1123 139.978 86.8339 140.924 87.1199C141.889 87.3568 142.888 87.4253 143.876 87.3223C145.196 87.2519 146.547 87.1287 147.687 86.4775C148.685 85.8592 149.482 84.9652 149.983 83.9035C150.477 82.8452 150.868 81.7415 151.149 80.6079C151.149 80.6079 140.752 81.2855 138.777 85.2323Z" fill="black"/>
</g>
<path d="M168.142 82.4163C169.857 83.6321 171.911 84.2758 174.012 84.2555C175.019 84.3116 176.013 83.9988 176.806 83.3755C177.145 83.0631 177.4 82.6671 177.748 82.3679C177.985 82.1655 178.262 82.0115 178.487 81.7959C178.605 81.6939 178.697 81.5642 178.753 81.4183C178.809 81.2724 178.828 81.1149 178.808 80.9599C178.721 80.5777 178.507 80.2364 178.201 79.9919C177.008 79.3143 175.583 79.3407 174.21 79.3715C172.836 79.431 171.479 79.6965 170.184 80.1591C169.119 80.5199 168.006 81.0391 167.465 82.0071" fill="#0669B7"/>
<g opacity="0.4">
<path opacity="0.4" d="M178.808 80.9598C178.653 80.5887 178.379 80.2793 178.029 80.0798C176.837 79.4022 175.583 79.3406 174.21 79.3714C172.836 79.4309 171.479 79.6964 170.184 80.159C169.119 80.5198 168.006 81.039 167.465 82.007L168.142 82.4162C169.857 83.632 171.911 84.2757 174.012 84.2554C175.019 84.3116 176.013 83.9987 176.806 83.3754C177.145 83.063 177.4 82.667 177.748 82.3678C177.985 82.1654 178.262 82.0114 178.487 81.7958C178.605 81.6939 178.697 81.5641 178.753 81.4183C178.809 81.2724 178.828 81.1149 178.808 80.9598Z" fill="black"/>
</g>
<path d="M147.841 98.2078L169.775 98.4982C169.82 98.4981 169.864 98.4876 169.903 98.4674C169.943 98.4472 169.978 98.418 170.004 98.3821C170.031 98.3462 170.049 98.3045 170.056 98.2605C170.064 98.2165 170.061 98.1713 170.048 98.1286L167.474 90.103C167.474 90.103 167.852 86.0902 168.376 81.2678C169.172 73.9418 170.233 64.7326 170.246 64.759C168.745 60.5526 159.893 59.8398 159.893 59.8398L149.803 60.4382L149.451 59.8442L146.547 61.195C145.914 61.4897 145.305 61.834 144.726 62.2246C142.807 63.505 138.187 66.4486 137.343 69.7266C135.393 77.3166 138.693 85.7866 138.693 85.7866L140.814 84.1278C141.348 83.7162 141.91 83.3413 142.495 83.0058L146.745 94.3974C146.492 94.5569 146.278 94.7708 146.118 95.0235C145.958 95.2762 145.857 95.5614 145.821 95.8582C145.786 96.7822 146.261 97.891 147.841 98.2078Z" fill="#0669B7"/>
<g opacity="0.3">
<path opacity="0.3" d="M157.252 84.779C157.947 81.039 157.582 77.1934 157.208 73.4094C155.993 76.4894 156.037 80.0094 154.748 83.063C154.59 83.3855 154.475 83.7272 154.405 84.0794C154.371 84.2563 154.38 84.4387 154.43 84.6115C154.481 84.7844 154.572 84.9428 154.695 85.0738C155.047 85.395 155.575 85.219 156.042 85.1662C156.459 85.0866 156.865 84.9566 157.252 84.779Z" fill="black"/>
</g>
<g opacity="0.4">
<path opacity="0.4" d="M149.16 93.4381C150.92 94.0497 152.794 92.9101 154.656 92.7077C155.888 92.5757 157.12 92.8573 158.343 93.0553C160.816 93.4555 163.333 93.5176 165.823 93.2401C166.205 93.2191 166.579 93.1219 166.923 92.9541C167.101 92.833 167.246 92.6702 167.346 92.48C167.447 92.2899 167.499 92.078 167.499 91.8629C163.354 91.4229 159.214 91.1853 155.069 90.7585C154.038 90.5825 152.981 90.6169 151.963 90.8597C150.713 91.2469 149.763 92.2281 148.883 93.2005" fill="black"/>
</g>
<path d="M178.175 79.5167C176.384 75.4819 170.07 64.3235 170.07 64.3235L165.182 70.4527L166.321 82.4867C166.321 82.4867 168.904 79.6047 176.124 79.5475C176.649 79.5685 177.163 79.7066 177.627 79.9518C178.091 80.1969 178.495 80.5429 178.808 80.9643L178.175 79.5167Z" fill="#0669B7"/>
<path d="M148.822 77.3826C148.473 76.5272 148.197 75.6441 147.995 74.7426C147.722 73.8645 147.521 72.9653 147.396 72.0542C147.74 72.9111 148.015 73.7938 148.219 74.6942C148.493 75.5726 148.694 76.4716 148.822 77.3826Z" fill="#263238"/>
<path d="M164.812 69.6387C164.971 69.7512 165.119 69.8794 165.252 70.0215C165.641 70.3969 166.005 70.7966 166.343 71.2183C167.481 72.609 168.281 74.2447 168.68 75.9967C168.887 76.9652 168.933 77.9612 168.816 78.9447C168.706 79.8467 168.534 80.6387 168.42 81.3075C168.306 81.9763 168.235 82.5219 168.2 82.9003C168.199 83.0969 168.178 83.2929 168.138 83.4855C168.107 83.2891 168.098 83.0898 168.112 82.8915C168.131 82.3523 168.181 81.8146 168.262 81.2811C168.354 80.6079 168.508 79.8071 168.609 78.9227C168.711 77.9614 168.659 76.99 168.455 76.0451C168.061 74.3258 167.297 72.7131 166.216 71.3195C165.41 70.2371 164.777 69.6739 164.812 69.6387Z" fill="#263238"/>
<path d="M160.333 97.2398C160.18 97.308 160.018 97.3553 159.853 97.3806C159.665 97.4302 159.474 97.467 159.281 97.4906C159.057 97.5214 158.801 97.5698 158.515 97.583C157.845 97.6445 157.171 97.6445 156.5 97.583C155.68 97.4987 154.87 97.3367 154.08 97.099C153.295 96.8466 152.535 96.521 151.81 96.1266C151.222 95.7987 150.664 95.4204 150.142 94.9958C149.913 94.8198 149.729 94.635 149.561 94.481C149.417 94.3511 149.281 94.213 149.152 94.0674C149.03 93.9542 148.925 93.8238 148.84 93.6802C148.871 93.6494 149.341 94.1774 150.243 94.8682C150.77 95.2692 151.328 95.6281 151.911 95.9418C152.628 96.3183 153.375 96.6319 154.146 96.879C154.922 97.1128 155.717 97.2777 156.522 97.3718C157.18 97.4426 157.842 97.4632 158.502 97.4334C159.633 97.3718 160.324 97.2046 160.333 97.2398Z" fill="#263238"/>
<path d="M167.104 94.7407C167.207 94.9397 167.266 95.159 167.276 95.3831C167.346 95.9195 167.305 96.4646 167.157 96.9847C167.006 97.5168 166.699 97.9917 166.277 98.3487C165.956 98.6171 165.709 98.7007 165.696 98.6787C165.683 98.6567 165.89 98.5115 166.167 98.2387C166.523 97.8676 166.781 97.4141 166.919 96.9187C167.271 95.7571 167.02 94.7451 167.104 94.7407Z" fill="#263238"/>
<path d="M165.91 96.2896C166.006 96.7421 165.968 97.2126 165.8 97.6439C165.633 98.0751 165.344 98.4484 164.969 98.7183C164.92 98.6699 165.33 98.2343 165.585 97.5611C165.84 96.8879 165.844 96.294 165.91 96.2896Z" fill="#263238"/>
<path d="M161.987 81.8135C161.754 82.2076 161.492 82.5841 161.204 82.9399C160.976 83.3373 160.719 83.7168 160.434 84.0751C160.518 83.6107 160.718 83.175 161.014 82.8079C161.249 82.3993 161.584 82.0571 161.987 81.8135Z" fill="#263238"/>
<path d="M146.93 71.1566C146.594 70.9597 146.27 70.7453 145.957 70.5142C144.392 69.4861 142.616 68.823 140.761 68.5738C140.372 68.5455 139.986 68.494 139.604 68.4198C139.993 68.3659 140.389 68.3659 140.778 68.4198C142.685 68.5824 144.51 69.2625 146.058 70.3866C146.383 70.6016 146.676 70.8607 146.93 71.1566Z" fill="#263238"/>
<path d="M170.071 64.1782C169.283 64.8124 168.548 65.5083 167.871 66.2594C167.248 67.061 166.69 67.9115 166.203 68.8026C166.255 68.5029 166.358 68.2143 166.507 67.949C166.825 67.2893 167.224 66.6715 167.695 66.1098C168.166 65.5493 168.708 65.051 169.305 64.627C169.533 64.4344 169.792 64.2826 170.071 64.1782Z" fill="#263238"/>
<path d="M161.016 60.5527C161.056 60.6162 161.088 60.6841 161.113 60.7551C161.199 60.9544 161.268 61.1604 161.319 61.3711C161.505 62.1552 161.505 62.9718 161.319 63.7559C161.046 64.9265 160.419 65.9847 159.524 66.7875C158.395 67.7442 156.956 68.2572 155.476 68.2307C153.995 68.2358 152.552 67.762 151.362 66.8799C150.414 66.1561 149.645 65.2243 149.114 64.1563C148.756 63.4412 148.504 62.6779 148.366 61.8903C148.325 61.6782 148.299 61.4636 148.287 61.2479C148.274 61.1722 148.274 61.0949 148.287 61.0191C148.287 61.0191 148.335 61.3271 148.458 61.8727C148.629 62.6381 148.9 63.3778 149.263 64.0727C149.8 65.1086 150.562 66.0107 151.494 66.7127C152.641 67.5617 154.028 68.024 155.454 68.0327C156.881 68.0589 158.269 67.5717 159.366 66.6599C160.23 65.8865 160.843 64.872 161.126 63.7471C161.322 62.9878 161.349 62.1948 161.205 61.4239C161.121 60.8431 160.989 60.5615 161.016 60.5527Z" fill="#263238"/>
<g opacity="0.3">
<path opacity="0.3" d="M162.554 82.5922C162.554 82.3722 162.519 82.1126 162.326 82.0026C162.264 81.9717 162.196 81.9556 162.128 81.9556C162.059 81.9556 161.991 81.9717 161.93 82.0026C161.807 82.0691 161.697 82.1588 161.608 82.2666C161.091 82.8049 160.691 83.4447 160.434 84.1454L162.59 83.9562C162.576 83.5118 162.568 83.0454 162.554 82.5922Z" fill="black"/>
</g>
<g opacity="0.3">
<path opacity="0.3" d="M169.713 78.0559C169.496 76.8222 168.956 75.6682 168.146 74.7119C169.079 77.7567 168.767 79.4771 168.243 81.5627L168.358 81.2723C168.96 80.0535 169.876 79.2879 169.713 78.0559Z" fill="black"/>
</g>
<path d="M165.407 180.338L164.091 200.072L155.511 199.971L154.16 179.454L165.407 180.338Z" fill="#FFBE9D"/>
<path d="M164.332 197.476V198.048C164.332 198.048 174.012 201.938 174.104 203.768L154.881 203.663L155.18 197.269C158.044 198.611 161.041 198.779 164.332 197.476Z" fill="#0669B7"/>
<path d="M157.129 199.32C156.946 199.375 156.79 199.495 156.69 199.657C156.589 199.819 156.551 200.012 156.583 200.2C156.63 200.388 156.748 200.55 156.912 200.652C157.076 200.755 157.274 200.79 157.463 200.75C157.659 200.691 157.826 200.562 157.932 200.387C158.037 200.212 158.074 200.004 158.035 199.804C157.965 199.614 157.825 199.458 157.642 199.371C157.46 199.283 157.25 199.269 157.058 199.333" fill="white"/>
<path d="M154.881 203.663L154.951 202.127L173.361 202.796C173.361 202.796 174.214 203.174 174.113 203.773L154.881 203.663Z" fill="#263238"/>
<path d="M164.402 198.101C164.402 198.193 163.927 198.233 163.465 198.541C163.003 198.849 162.752 199.232 162.669 199.197C162.585 199.161 162.726 198.616 163.293 198.264C163.861 197.912 164.424 198 164.402 198.101Z" fill="#263238"/>
<path d="M166.412 198.946C166.434 199.038 166.025 199.192 165.704 199.588C165.383 199.984 165.29 200.402 165.193 200.398C165.097 200.394 165.044 199.861 165.453 199.382C165.862 198.902 166.408 198.88 166.412 198.946Z" fill="#263238"/>
<path d="M167.544 201.366C167.456 201.366 167.329 200.926 167.575 200.402C167.821 199.879 168.257 199.689 168.297 199.764C168.336 199.839 168.063 200.116 167.857 200.543C167.65 200.97 167.641 201.357 167.544 201.366Z" fill="#263238"/>
<path d="M163.839 36.0138C164.336 34.7818 163.733 33.2902 162.664 32.4938C161.537 31.7521 160.163 31.4849 158.84 31.7502C157.536 32.0239 156.272 32.4677 155.083 33.0702C154.53 32.5125 153.833 32.1194 153.069 31.9349C152.306 31.7505 151.506 31.7819 150.759 32.0256C150.013 32.2693 149.348 32.7158 148.841 33.3152C148.333 33.9145 148.002 34.6432 147.884 35.4198C147.409 35.3001 146.909 35.3122 146.44 35.4547C145.971 35.5973 145.549 35.8649 145.22 36.229C144.891 36.5931 144.668 37.0398 144.574 37.5213C144.48 38.0027 144.518 38.5007 144.686 38.9618L150.634 41.0518L157.129 52.4919C158.089 53.3107 159.314 53.7524 160.575 53.7345C161.837 53.7167 163.049 53.2404 163.985 52.3947C164.921 51.549 165.518 50.3915 165.663 49.1383C165.809 47.8851 165.493 46.6217 164.776 45.5838C165.14 45.2603 165.449 44.8799 165.691 44.4574C166.21 44.1506 166.663 43.7436 167.023 43.2601C167.384 42.7767 167.644 42.2265 167.79 41.6414C168.366 39.0938 166.395 36.313 163.839 36.0138Z" fill="#263238"/>
<path d="M159.902 59.8399C159.532 57.9787 159.277 56.7027 159.281 56.7159C159.286 56.7291 162.801 55.3519 162.546 50.4547C162.423 48.0171 161.494 44.1759 160.632 41.0607C159.858 38.2535 157.24 35.1603 154.472 36.0535L146.081 40.1455C145.241 40.4183 145.096 41.2103 145.294 42.0683V42.5083L148.554 55.9987L149.931 62.0267C150.225 63.2644 150.971 64.3474 152.023 65.0624C153.075 65.7774 154.357 66.0726 155.616 65.8899C156.303 65.7932 156.964 65.557 157.557 65.1958C158.15 64.8346 158.663 64.3561 159.064 63.7895C159.465 63.223 159.747 62.5804 159.891 61.9012C160.035 61.222 160.038 60.5205 159.902 59.8399Z" fill="#FFBE9D"/>
<path d="M160.601 44.3167C160.637 44.4728 160.611 44.6365 160.529 44.7741C160.447 44.9116 160.315 45.0125 160.161 45.0559C160.083 45.0776 160.002 45.0834 159.922 45.0728C159.842 45.0623 159.765 45.0356 159.696 44.9945C159.626 44.9534 159.566 44.8987 159.518 44.8336C159.47 44.7685 159.436 44.6945 159.418 44.6159C159.382 44.4603 159.409 44.2972 159.49 44.1604C159.572 44.0236 159.704 43.9235 159.858 43.8811C159.935 43.8587 160.016 43.8523 160.096 43.8622C160.176 43.8722 160.253 43.8984 160.323 43.9391C160.393 43.9799 160.453 44.0344 160.501 44.0993C160.549 44.1642 160.583 44.2382 160.601 44.3167Z" fill="#263238"/>
<path d="M160.218 43.3795C160.156 43.4763 159.624 43.2343 158.972 43.3795C158.321 43.5247 157.908 43.9471 157.82 43.8811C157.732 43.8151 157.82 43.6919 158 43.4983C158.242 43.2425 158.557 43.0674 158.902 42.9967C159.242 42.9233 159.597 42.9619 159.914 43.1067C160.16 43.2079 160.244 43.3399 160.218 43.3795Z" fill="#263238"/>
<path d="M154.213 45.7599C154.248 45.9154 154.222 46.0786 154.14 46.2154C154.058 46.3522 153.926 46.4522 153.773 46.4947C153.697 46.5168 153.617 46.5236 153.538 46.5148C153.46 46.5059 153.384 46.4816 153.315 46.4431C153.245 46.4046 153.185 46.3528 153.136 46.2907C153.087 46.2285 153.05 46.1573 153.029 46.0811C152.994 45.925 153.02 45.7612 153.102 45.6237C153.183 45.4862 153.315 45.3853 153.469 45.3419C153.545 45.3198 153.625 45.3132 153.704 45.3223C153.783 45.3315 153.859 45.3562 153.928 45.3951C153.998 45.434 154.058 45.4863 154.107 45.5489C154.156 45.6116 154.192 45.6833 154.213 45.7599Z" fill="#263238"/>
<path d="M153.891 44.9325C153.834 45.0293 153.297 44.7829 152.646 44.9325C151.995 45.0821 151.581 45.4957 151.493 45.4341C151.405 45.3725 151.493 45.2449 151.674 45.0469C151.917 44.7934 152.232 44.62 152.576 44.5497C152.916 44.4775 153.27 44.5144 153.588 44.6553C153.821 44.7609 153.922 44.8797 153.891 44.9325Z" fill="#263238"/>
<path d="M157.205 49.0687C157.527 48.8908 157.87 48.7519 158.226 48.6551C158.388 48.6023 158.542 48.5363 158.547 48.4175C158.524 48.2425 158.449 48.0785 158.331 47.9467L157.57 46.7763C156.505 45.1087 155.696 43.7271 155.762 43.6963C155.828 43.6655 156.747 44.9723 157.812 46.6399L158.556 47.8191C158.702 47.9996 158.781 48.225 158.78 48.4571C158.767 48.5204 158.74 48.5801 158.701 48.6318C158.662 48.6835 158.613 48.726 158.556 48.7563C158.469 48.8019 158.378 48.8359 158.283 48.8575C157.935 48.9767 157.572 49.0478 157.205 49.0687Z" fill="#263238"/>
<path d="M159.282 56.7158C157.056 57.2188 154.735 57.0939 152.576 56.355C152.576 56.355 154.882 59.3646 159.533 57.9258L159.282 56.7158Z" fill="#EB996E"/>
<path d="M154.001 43.9998C153.957 44.189 153.284 44.1846 152.519 44.3738C151.753 44.563 151.146 44.849 151.023 44.6994C150.97 44.629 151.058 44.4442 151.291 44.2594C151.601 43.9984 151.969 43.8157 152.365 43.727C152.757 43.634 153.165 43.634 153.557 43.727C153.869 43.7842 154.032 43.9118 154.001 43.9998Z" fill="#263238"/>
<path d="M159.968 41.3026C159.862 41.4786 159.299 41.4346 158.648 41.5622C157.996 41.6898 157.482 41.9098 157.328 41.7822C157.257 41.7162 157.328 41.549 157.517 41.3422C157.807 41.0978 158.158 40.9367 158.533 40.8758C158.902 40.8015 159.283 40.8289 159.638 40.955C159.906 41.0782 160.012 41.2146 159.968 41.3026Z" fill="#263238"/>
<path d="M148.153 36.9951C148.25 37.4717 148.452 37.9211 148.742 38.3112C149.033 38.7014 149.406 39.0227 149.835 39.2525C150.263 39.4822 150.738 39.6147 151.223 39.6405C151.709 39.6664 152.195 39.5849 152.646 39.4019C153.341 39.1203 154.062 38.5923 154.766 38.8475C155.47 39.1027 155.761 40.1059 156.434 40.4799C157.424 41.0343 158.634 40.0751 159.738 40.1719C160.618 40.2467 161.283 40.9199 161.965 41.4919C162.647 42.0639 163.588 42.4951 164.358 42.0815C164.182 41.3467 163.921 40.635 163.58 39.9607C163.235 39.2819 162.666 38.7437 161.969 38.4383C161.582 38.2843 161.164 38.2315 160.794 38.0423C159.998 37.6375 159.642 36.7223 159.065 36.0315C158.687 35.5962 158.21 35.2573 157.674 35.0431C157.138 34.8288 156.559 34.7453 155.985 34.7995C155.035 34.8963 154.133 35.3759 153.174 35.3363C152.465 35.3055 151.788 34.9887 151.079 35.0019C149.702 35.0019 148.668 36.2339 147.902 37.3823" fill="#263238"/>
<path d="M152.791 38.0027C152.157 37.9543 150.863 37.8223 150.437 37.3735C150.003 36.8885 149.45 36.5259 148.832 36.3221C148.214 36.1182 147.554 36.0802 146.917 36.2119C146.284 36.4003 145.729 36.7868 145.333 37.3143C144.937 37.8418 144.721 38.4826 144.717 39.1422C143.947 39.3301 143.242 39.7224 142.677 40.2777C142.111 40.833 141.706 41.5307 141.505 42.297C141.3 43.0993 141.293 43.9393 141.484 44.7449C141.676 45.5504 142.06 46.2973 142.605 46.9214C142.869 47.252 143.11 47.6004 143.326 47.9643C143.028 48.3344 142.766 48.7322 142.543 49.1522C141.535 51.3786 144.268 52.2322 144.268 52.2322C144.268 53.7282 145.654 53.7194 146.538 53.715C147.423 53.7106 147.911 56.0735 148.602 55.9811L147.902 48.6903C148.005 48.7301 148.113 48.751 148.223 48.7519C149.891 48.7827 149.455 45.6235 148.919 44.7919C149.415 44.1734 149.835 43.4966 150.168 42.7766C150.47 41.676 150.491 40.5172 150.23 39.4062C150.789 39.3358 153.063 38.0203 152.791 38.0027Z" fill="#263238"/>
<path d="M148.122 49.0774C148.066 48.8458 147.951 48.6323 147.789 48.4568C147.628 48.2814 147.424 48.1498 147.198 48.0742C146.972 47.9986 146.73 47.9816 146.496 48.0247C146.261 48.0678 146.041 48.1696 145.856 48.3206C145.416 48.699 145.183 49.3326 145.447 50.393C146.16 53.2266 148.857 51.9286 148.84 51.8494C148.822 51.7702 148.43 50.2478 148.122 49.0774Z" fill="#FFBE9D"/>
<path d="M147.705 50.9913C147.705 50.9913 147.665 51.0397 147.591 51.0969C147.487 51.1767 147.356 51.2129 147.225 51.1981C146.9 51.1629 146.526 50.7581 146.385 50.2433C146.318 50.0028 146.304 49.7504 146.345 49.5041C146.35 49.4084 146.377 49.3152 146.426 49.2325C146.474 49.1497 146.542 49.0799 146.623 49.0289C146.676 49.0001 146.738 48.9909 146.797 49.003C146.857 49.0151 146.91 49.0476 146.948 49.0949C147.005 49.1609 147.001 49.2225 147.019 49.2269C147.036 49.2313 147.067 49.1609 147.019 49.0509C146.985 48.9857 146.931 48.9332 146.865 48.9013C146.772 48.8636 146.667 48.8636 146.574 48.9013C146.464 48.9538 146.368 49.0333 146.297 49.1326C146.225 49.2318 146.18 49.3475 146.165 49.4689C146.108 49.746 146.119 50.0328 146.196 50.3049C146.245 50.5604 146.368 50.7957 146.551 50.9812C146.733 51.1668 146.966 51.2943 147.221 51.3477C147.304 51.3511 147.386 51.3358 147.463 51.3031C147.539 51.2703 147.607 51.2209 147.661 51.1585C147.718 51.0617 147.718 50.9957 147.705 50.9913Z" fill="#EB996E"/>
<path d="M163.315 45.1219C163.315 45.1219 163.574 44.9239 163.935 44.4839C164.433 43.8499 164.738 43.0864 164.815 42.2839C164.873 41.7361 164.819 41.1822 164.657 40.6559C164.469 40.0522 164.12 39.5108 163.649 39.0895C163.105 38.6142 162.446 38.2894 161.737 38.1474C161.029 38.0054 160.295 38.051 159.61 38.2799C159.478 38.3239 159.355 38.3899 159.231 38.4427C159.108 38.4955 158.998 38.5747 158.884 38.6407L158.708 38.7375V38.5439C158.704 38.2031 158.578 37.875 158.351 37.6199C158.12 37.3723 157.836 37.1799 157.52 37.0567C156.922 36.8077 156.26 36.7583 155.632 36.9159C154.418 37.1931 153.388 37.7475 152.416 37.8619C151.653 37.9944 150.869 37.8375 150.216 37.4219C150.044 37.3034 149.894 37.1542 149.776 36.9819C149.705 36.8631 149.67 36.7971 149.679 36.7927C149.838 37.01 150.033 37.1989 150.255 37.3515C150.898 37.7223 151.652 37.8489 152.381 37.7079C152.887 37.6126 153.383 37.4651 153.859 37.2679C154.418 37.0444 154.991 36.8577 155.575 36.7091C155.9 36.6304 156.235 36.5964 156.569 36.6079C156.922 36.6266 157.269 36.707 157.595 36.8455C157.931 36.9893 158.232 37.2056 158.475 37.4791C158.735 37.777 158.881 38.1573 158.888 38.5527L158.712 38.4559L159.077 38.2447C159.214 38.1919 159.341 38.1215 159.482 38.0731C160.205 37.8257 160.98 37.774 161.729 37.9231C162.477 38.0723 163.173 38.417 163.746 38.9223C164.241 39.3703 164.603 39.9456 164.793 40.5855C164.991 41.2637 165.017 41.9802 164.87 42.6711C164.724 43.3621 164.409 44.006 163.953 44.5455C163.808 44.7109 163.644 44.8586 163.464 44.9855C163.42 45.0369 163.37 45.0827 163.315 45.1219Z" fill="#455A64"/>
<path d="M162.744 35.1733C162.455 35.0267 162.147 34.9215 161.829 34.8609C161.465 34.8112 161.095 34.8458 160.746 34.9621C160.295 35.1001 159.903 35.3851 159.633 35.7717L159.523 35.9257L159.457 35.7497C159.228 35.2088 158.858 34.739 158.386 34.3886C157.914 34.0383 157.357 33.8201 156.773 33.7565C155.856 33.722 154.951 33.9843 154.195 34.5045C153.55 34.9247 152.865 35.2785 152.149 35.5605C151.655 35.7472 151.124 35.8106 150.6 35.7453C150.461 35.7195 150.324 35.6813 150.191 35.6309C150.103 35.5913 150.054 35.5693 150.059 35.5605C150.063 35.5517 150.257 35.6177 150.613 35.6529C151.119 35.6845 151.626 35.6018 152.096 35.4109C152.792 35.1075 153.459 34.7423 154.089 34.3197C154.479 34.0779 154.891 33.876 155.321 33.7169C155.794 33.5446 156.299 33.48 156.8 33.5277C157.424 33.5959 158.018 33.8319 158.518 34.2108C159.019 34.5897 159.407 35.0972 159.642 35.6793H159.47C159.773 35.2658 160.205 34.9654 160.698 34.8257C161.073 34.7171 161.467 34.6975 161.851 34.7685C162.094 34.8146 162.326 34.904 162.537 35.0325C162.613 35.0694 162.682 35.1168 162.744 35.1733Z" fill="#455A64"/>
<path d="M156.949 50.371C156.846 50.2851 156.726 50.2218 156.597 50.1854C156.468 50.149 156.333 50.1403 156.2 50.1598C156.046 50.1929 155.899 50.2581 155.771 50.3514C155.643 50.4446 155.536 50.5637 155.457 50.701C155.457 50.701 155.435 50.723 155.43 50.7362C155.37 50.8367 155.342 50.9536 155.351 51.0706C155.37 51.198 155.421 51.3188 155.497 51.4224C155.574 51.526 155.675 51.6091 155.791 51.6646C155.977 51.7589 156.188 51.7934 156.394 51.7635C156.601 51.7335 156.793 51.6406 156.944 51.4974C157.088 51.3454 157.168 51.1443 157.169 50.935C157.17 50.7258 157.091 50.5241 156.949 50.371Z" fill="#0669B7"/>
<path d="M157.169 51.7394C157.134 51.7394 157.094 51.6074 156.976 51.427C156.832 51.1852 156.619 50.993 156.363 50.8766C156.107 50.7601 155.822 50.725 155.546 50.7758C155.33 50.8066 155.198 50.8682 155.185 50.8374C155.172 50.8066 155.273 50.701 155.51 50.6174C155.821 50.5173 156.158 50.5361 156.456 50.6702C156.757 50.8041 156.995 51.0482 157.121 51.3522C157.213 51.581 157.2 51.735 157.169 51.7394Z" fill="#263238"/>
<path d="M148.189 52.2849C148.189 52.2849 148.316 52.5049 148.149 52.8393C148.055 53.0394 147.888 53.1965 147.683 53.2793C147.555 53.3252 147.418 53.3407 147.283 53.3247C147.147 53.3086 147.018 53.2615 146.904 53.1869C146.788 53.1165 146.69 53.0203 146.618 52.9058C146.545 52.7914 146.5 52.6617 146.486 52.5269C146.473 52.3096 146.537 52.0945 146.666 51.9197C146.895 51.6293 147.15 51.6205 147.15 51.6469C147.15 51.6733 146.957 51.7481 146.803 52.0121C146.714 52.16 146.677 52.3335 146.697 52.5049C146.714 52.6053 146.752 52.701 146.809 52.7853C146.866 52.8696 146.94 52.9406 147.027 52.9933C147.113 53.0482 147.21 53.0845 147.311 53.0996C147.411 53.1148 147.514 53.1086 147.612 53.0813C147.775 53.0232 147.915 52.9154 148.013 52.7733C148.184 52.5005 148.154 52.2849 148.189 52.2849Z" fill="#0669B7"/>
<path d="M146.706 52.1134C146.728 52.1134 146.706 52.263 146.499 52.3598C146.397 52.402 146.286 52.4143 146.177 52.3951C146.069 52.376 145.968 52.3262 145.887 52.2517C145.806 52.1772 145.748 52.0811 145.72 51.9747C145.692 51.8684 145.695 51.7562 145.729 51.6514C145.772 51.5324 145.854 51.4316 145.962 51.3654C146.142 51.2554 146.279 51.2994 146.274 51.3258C146.27 51.3522 146.169 51.383 146.059 51.493C146.005 51.5606 145.972 51.6427 145.964 51.729C145.956 51.8153 145.974 51.9019 146.016 51.978C146.057 52.0541 146.12 52.1163 146.196 52.1568C146.273 52.1974 146.36 52.2144 146.446 52.2058C146.596 52.175 146.675 52.0958 146.706 52.1134Z" fill="#0669B7"/>
<path d="M151.541 91.1898C151.541 91.1898 162.435 91.8234 168.877 91.8806C173.862 91.929 176.088 90.6046 177.083 87.397C177.919 84.7086 176.123 79.5474 176.123 79.5474C172.749 79.5474 170.667 80.0314 168.498 81.0478L169.075 83.4062L151.51 84.9198L151.541 91.1898Z" fill="#FFBE9D"/>
<path d="M172.737 85.9231C172.264 85.3088 171.712 84.7599 171.095 84.2907C170.434 83.8858 169.72 83.5721 168.975 83.3579C169.209 83.3242 169.449 83.3452 169.674 83.4195C170.228 83.5503 170.753 83.7815 171.223 84.1015C171.694 84.4226 172.101 84.8284 172.424 85.2983C172.671 85.6591 172.763 85.9099 172.737 85.9231Z" fill="#EB996E"/>
<path d="M147.555 81.0302C147.555 81.0302 144.184 81.8398 141.707 83.4942L144.347 90.6486C145.227 92.9982 147.915 94.1686 150.067 92.9366C153.38 91.0402 154.551 85.5138 154.551 85.5138L158.189 69.7266L152.157 65.947L147.577 81.0302" fill="#FFBE9D"/>
<path d="M152.135 65.947L152.381 60.755L151.031 55.475C150.956 55.1846 150.921 54.8194 151.158 54.6434C151.276 54.553 151.422 54.5063 151.57 54.5111C151.718 54.5159 151.861 54.572 151.972 54.6698C152.337 55.0482 154.097 59.6638 154.097 59.6638C154.097 59.6638 156.768 58.0622 157.243 57.983C157.719 57.9038 158.313 59.3426 158.352 59.4526C158.37 59.775 158.37 60.0981 158.352 60.4206C158.352 60.4206 160.002 60.469 160.152 60.6934C160.272 61.1518 160.335 61.6231 160.341 62.097C160.341 62.097 161.041 62.3214 161.151 62.8494C161.261 63.3774 161.489 64.2486 161.151 64.4422C160.812 64.6358 160.125 65.0142 160.125 65.0142C160.125 65.0142 159.848 67.707 159.773 67.9534C159.699 68.1998 158.154 69.7134 158.154 69.7134L152.135 65.947Z" fill="#FFBE9D"/>
<path d="M146.521 93.0424C146.521 93.0424 146.684 93.1392 147.027 93.2492C147.529 93.4067 148.06 93.4488 148.581 93.3724C149.417 93.2531 150.2 92.8922 150.833 92.334C151.671 91.5742 152.378 90.6824 152.928 89.694C153.251 89.113 153.524 88.505 153.742 87.8768C153.971 87.1855 154.16 86.4819 154.309 85.7692C154.653 84.2864 155.027 82.6892 155.423 80.9908C156.215 77.5984 157.103 73.8056 158.063 69.718V69.6872H158.085C158.388 69.388 158.692 69.0844 158.995 68.7676C159.145 68.6092 159.295 68.4508 159.435 68.288C159.506 68.2044 159.581 68.1208 159.638 68.0372C159.682 67.9544 159.708 67.8627 159.713 67.7688C159.832 66.8888 159.924 65.978 160.021 65.0584V65.0012L160.073 64.9748L160.914 64.504C160.975 64.4644 161.072 64.4204 161.112 64.3852C161.154 64.3471 161.182 64.2959 161.191 64.24C161.212 64.094 161.212 63.9459 161.191 63.8C161.148 63.4773 161.082 63.1582 160.993 62.8452C160.843 62.5715 160.592 62.3676 160.293 62.2776L160.219 62.2512V62.1764C160.219 61.9212 160.192 61.6572 160.161 61.3976C160.15 61.2676 160.13 61.1383 160.104 61.0104C160.094 60.954 160.076 60.8992 160.051 60.8476C160.051 60.8168 160.051 60.8476 160.025 60.8212C160.001 60.8086 159.976 60.7983 159.95 60.7904C159.421 60.6751 158.881 60.6146 158.34 60.61H158.225V60.4956C158.225 60.2228 158.225 59.9192 158.225 59.6156C158.207 59.512 158.172 59.4123 158.12 59.3208C158.076 59.2152 158.023 59.114 157.97 59.0084C157.867 58.8046 157.747 58.6102 157.609 58.4276C157.547 58.3425 157.471 58.2681 157.385 58.2076C157.353 58.1806 157.314 58.1637 157.273 58.159C157.231 58.1543 157.189 58.162 157.152 58.1812C156.939 58.2627 156.732 58.3583 156.531 58.4672C155.713 58.9072 154.912 59.3472 154.129 59.8224L154.015 59.8928L153.966 59.7696C153.553 58.7268 153.139 57.6972 152.734 56.6896C152.532 56.1836 152.334 55.6776 152.131 55.1804C152.1 55.069 152.038 54.9686 151.953 54.8908C151.867 54.813 151.761 54.7609 151.647 54.7404C151.542 54.7055 151.428 54.7074 151.324 54.7457C151.221 54.7841 151.133 54.8567 151.075 54.9516C151.021 55.046 150.998 55.1555 151.009 55.264C151.009 55.3608 151.071 55.5104 151.097 55.6292C151.168 55.8844 151.234 56.1352 151.3 56.386C151.432 56.892 151.559 57.3892 151.691 57.882C151.95 58.8734 152.203 59.8414 152.453 60.786V60.8168C152.365 62.6237 152.281 64.3544 152.202 66.0088V66L148.193 79.0416L147.063 82.6716C146.931 83.0808 146.829 83.402 146.759 83.6264C146.689 83.8508 146.645 83.9476 146.645 83.9476C146.645 83.9476 146.667 83.8332 146.728 83.6176L147.005 82.654C147.261 81.8048 147.626 80.5772 148.088 79.0108C149.038 75.8604 150.389 71.3636 152.021 65.9428V65.9648C152.098 64.3162 152.175 62.5856 152.255 60.7728V60.8036C152.004 59.8576 151.744 58.8896 151.485 57.904L151.089 56.408C151.023 56.1572 150.957 55.902 150.886 55.6512C150.848 55.5194 150.818 55.3858 150.794 55.2508C150.778 55.098 150.81 54.9441 150.886 54.8108C150.968 54.6735 151.093 54.568 151.243 54.5116C151.39 54.4684 151.547 54.4635 151.697 54.4973C151.847 54.5312 151.986 54.6027 152.101 54.7052C152.211 54.8088 152.293 54.9391 152.338 55.0836L152.941 56.5928C153.35 57.6048 153.759 58.6344 154.177 59.6728L154.015 59.6156C154.802 59.1492 155.594 58.6828 156.43 58.2472C156.642 58.1367 156.859 58.0383 157.081 57.9524C157.151 57.9235 157.227 57.9129 157.301 57.9216C157.377 57.9325 157.449 57.9595 157.513 58.0008C157.619 58.0768 157.712 58.1688 157.79 58.2736C157.937 58.4661 158.065 58.6724 158.173 58.8896C158.23 58.9996 158.283 59.1052 158.331 59.2152C158.394 59.3317 158.435 59.4583 158.454 59.5892C158.454 59.9016 158.454 60.192 158.454 60.4692L158.344 60.3504C158.91 60.3542 159.473 60.4191 160.025 60.544C160.063 60.5572 160.1 60.5734 160.135 60.5924C160.183 60.6187 160.223 60.6584 160.25 60.7068C160.284 60.7782 160.309 60.8536 160.324 60.9312C160.351 61.072 160.368 61.204 160.386 61.3404C160.412 61.6088 160.43 61.8728 160.443 62.1368L160.364 62.0312C160.544 62.084 160.711 62.1728 160.856 62.2923C161 62.4119 161.119 62.5595 161.204 62.7264C161.301 63.0607 161.371 63.402 161.415 63.7472C161.446 63.9233 161.446 64.1034 161.415 64.2796C161.396 64.3863 161.34 64.4829 161.257 64.5524C161.185 64.6007 161.11 64.6448 161.033 64.6844L160.197 65.12L160.254 65.0364C160.153 65.956 160.06 66.858 159.937 67.7512L159.911 67.9228C159.9 67.9923 159.872 68.0577 159.827 68.112C159.762 68.2083 159.69 68.2995 159.611 68.3848C159.462 68.552 159.312 68.7148 159.171 68.8732C158.868 69.19 158.564 69.4936 158.256 69.7928L158.287 69.74C157.319 73.8232 156.421 77.616 155.616 81.0084C155.216 82.7024 154.833 84.2996 154.481 85.778C154.331 86.496 154.137 87.2042 153.9 87.8988C153.674 88.5329 153.394 89.1467 153.064 89.7336C152.502 90.7346 151.778 91.6356 150.921 92.4C150.269 92.9619 149.466 93.3198 148.611 93.4296C148.08 93.501 147.539 93.4467 147.032 93.2712C146.903 93.2238 146.778 93.1664 146.658 93.0996L146.521 93.0424Z" fill="#EB996E"/>
<path d="M158.358 60.4338C158.358 60.4646 158.208 60.4822 157.975 60.491C157.679 60.4966 157.384 60.532 157.095 60.5966C156.816 60.6652 156.559 60.8029 156.347 60.997C156.189 61.1466 156.118 61.2742 156.083 61.261C156.048 61.2478 156.083 61.0894 156.228 60.887C156.433 60.6308 156.718 60.451 157.038 60.3766C157.346 60.3007 157.666 60.2857 157.979 60.3326C158.217 60.3634 158.358 60.403 158.358 60.4338Z" fill="#EB996E"/>
<path d="M157.082 60.4822C157.024 60.4602 157.02 60.3238 157.082 60.1786C157.143 60.0334 157.231 59.9322 157.288 59.9542C157.346 59.9762 157.354 60.1126 157.288 60.2578C157.222 60.403 157.126 60.5042 157.082 60.4822Z" fill="#EB996E"/>
<path d="M160.416 62.0794C159.989 62.2115 159.543 62.2725 159.096 62.2598C158.955 62.2551 158.815 62.2842 158.688 62.3447C158.561 62.4051 158.45 62.4952 158.365 62.6074C158.251 62.7878 158.291 62.9374 158.255 62.9462C158.22 62.955 158.115 62.801 158.225 62.537C158.285 62.3883 158.396 62.2654 158.537 62.1894C158.7 62.1 158.88 62.046 159.065 62.031C159.514 61.9622 159.972 61.9786 160.416 62.0794Z" fill="#EB996E"/>
<path d="M160.126 63.6634C160.188 63.6634 160.223 63.989 160.206 64.3894C160.188 64.7898 160.122 65.1066 160.06 65.1066C159.999 65.1066 159.959 64.7766 159.977 64.3762C159.994 63.9758 160.06 63.659 160.126 63.6634Z" fill="#EB996E"/>
<path d="M161.951 75.5127L162.343 74.1663C162.361 74.1047 162.394 74.0488 162.44 74.0041C162.487 73.9594 162.543 73.9275 162.606 73.9116C162.668 73.8956 162.733 73.896 162.795 73.9129C162.857 73.9298 162.913 73.9626 162.959 74.0079L163.474 74.5315L163.79 73.2599C163.809 73.1865 163.85 73.1205 163.907 73.071C163.965 73.0215 164.036 72.9908 164.111 72.9831C164.187 72.9754 164.262 72.9911 164.329 73.028C164.395 73.0649 164.448 73.1213 164.481 73.1895L165.198 74.6943L161.951 75.5127Z" fill="white"/>
<path d="M165.209 75.2708C164.716 75.5086 164.194 75.6774 163.655 75.7723C163.135 75.9424 162.592 76.0372 162.045 76.0539C163.058 75.6471 164.123 75.3835 165.209 75.2708Z" fill="white"/>
<path d="M139.041 67.7598C139.041 67.7598 138.878 67.927 138.649 68.2834C138.342 68.7909 138.14 69.355 138.055 69.9422C137.93 70.8164 137.903 71.702 137.976 72.5822C138.025 73.581 138.104 74.6722 138.227 75.8162C138.435 77.7699 138.745 79.7114 139.155 81.633C139.309 82.3722 139.45 82.953 139.547 83.393C139.591 83.5778 139.631 83.7318 139.661 83.8638C139.692 83.9958 139.697 84.031 139.697 84.031C139.697 84.031 139.675 83.9782 139.644 83.8726C139.613 83.767 139.565 83.5822 139.516 83.4018C139.406 82.9926 139.257 82.403 139.076 81.6638C138.648 79.7429 138.33 77.7994 138.121 75.8426C137.998 74.6986 137.923 73.603 137.879 72.6042C137.813 71.7233 137.845 70.8378 137.976 69.9642C138.071 69.3693 138.286 68.8003 138.61 68.2922C138.729 68.0961 138.874 67.917 139.041 67.7598Z" fill="white"/>
<path d="M148.303 61.7672L148.202 61.82L147.911 61.9608C147.661 62.0796 147.295 62.2556 146.86 62.4976C145.724 63.1309 144.621 63.8211 143.555 64.5656C142.297 65.4456 141.184 66.2464 140.37 66.8272L139.406 67.5092L139.138 67.6896C139.108 67.7135 139.075 67.7342 139.041 67.7512C139.066 67.7216 139.096 67.6964 139.129 67.6764L139.384 67.4828L140.33 66.7744C141.135 66.1804 142.244 65.3532 143.503 64.4908C144.571 63.7431 145.681 63.0585 146.829 62.4404C147.269 62.2072 147.639 62.04 147.898 61.93L148.193 61.8068C148.281 61.776 148.281 61.7628 148.303 61.7672Z" fill="white"/>
<path d="M169.287 64.6314C169.259 64.6161 169.234 64.5968 169.212 64.5742L169.014 64.4026C168.769 64.1956 168.512 64.0031 168.244 63.8262C167.351 63.2567 166.403 62.7777 165.415 62.3962C164.43 62.0059 163.424 61.671 162.401 61.393C162.005 61.283 161.688 61.2038 161.464 61.151L161.213 61.085C161.182 61.0787 161.153 61.0683 161.125 61.0542H161.217L161.473 61.1026C161.697 61.1466 162.018 61.217 162.414 61.3182C163.446 61.5788 164.461 61.9066 165.45 62.2994C166.444 62.6808 167.393 63.1707 168.279 63.7602C168.648 64.01 168.987 64.3024 169.287 64.6314Z" fill="white"/>
<path d="M148.426 98.2167C148.367 98.2061 148.309 98.1868 148.255 98.1595C148.102 98.0923 147.955 98.0129 147.815 97.9219C147.578 97.7798 147.371 97.5925 147.207 97.3705C147.042 97.1485 146.923 96.8963 146.856 96.6283C146.735 96.0872 146.795 95.5214 147.027 95.0179C147.094 94.8615 147.18 94.7137 147.283 94.5779C147.353 94.4855 147.401 94.4415 147.406 94.4459C147.286 94.6335 147.178 94.829 147.085 95.0311C146.88 95.5254 146.832 96.0707 146.948 96.5931C147.074 97.1088 147.388 97.559 147.828 97.8559C148.193 98.1199 148.435 98.1991 148.426 98.2167Z" fill="white"/>
<path d="M147.027 93.4514C147.121 93.6261 147.19 93.8125 147.234 94.0058C147.303 94.1909 147.344 94.3851 147.357 94.5822C147.257 94.4117 147.186 94.2259 147.146 94.0322C147.074 93.8467 147.034 93.6503 147.027 93.4514Z" fill="white"/>
<path d="M152.976 192.104L166.396 192.038L166.154 145.64L166.026 98.441L147.841 98.2078L144.572 104.368C143.235 106.844 142.382 109.553 142.06 112.349C141.84 114.488 143.441 121.44 143.996 123.2L148.998 139.066L152.976 192.104Z" fill="#263238"/>
<path d="M169.965 98.4983L184.714 138.701C185.588 141.291 185.878 144.043 185.564 146.759C185.249 149.474 184.339 152.087 182.897 154.409L165.772 187.849L156.145 175.802L170.471 145.882L157.843 125.4L159.968 98.5599L165.917 98.4631L169.965 98.4983Z" fill="#263238"/>
<path d="M164.803 111.967C164.803 111.967 164.803 112.037 164.803 112.173C164.803 112.31 164.825 112.521 164.842 112.781C164.873 113.322 164.913 114.101 164.966 115.108C165.067 117.145 165.208 120.071 165.406 123.684C165.604 127.296 165.771 131.604 165.991 136.4C166.096 138.793 166.211 141.306 166.325 143.911C166.409 145.231 166.374 146.551 166.387 147.871C166.4 149.191 166.387 150.581 166.387 151.963C166.387 163.02 166.422 173.03 166.435 180.285C166.435 183.902 166.435 186.833 166.435 188.87C166.435 189.877 166.435 190.661 166.435 191.206C166.435 191.461 166.435 191.646 166.435 191.813C166.435 191.981 166.435 192.02 166.435 192.02C166.435 192.02 166.435 191.95 166.435 191.813V191.206C166.435 190.661 166.435 189.886 166.409 188.87C166.409 186.833 166.374 183.907 166.347 180.29C166.316 173.034 166.277 163.024 166.233 151.967C166.233 150.585 166.233 149.221 166.233 147.875C166.233 146.529 166.259 145.2 166.176 143.915C166.066 141.315 165.956 138.802 165.854 136.409C165.652 131.621 165.467 127.314 165.318 123.688C165.168 120.063 165.058 117.15 164.974 115.113C164.939 114.109 164.913 113.326 164.895 112.781C164.895 112.521 164.895 112.341 164.895 112.173C164.895 112.006 164.803 111.967 164.803 111.967Z" fill="#455A64"/>
<path d="M164.465 99.2903C164.516 99.4318 164.547 99.58 164.557 99.7303C164.606 100.012 164.658 100.421 164.72 100.931C164.834 101.948 164.958 103.36 165.028 104.922C165.098 106.484 165.103 107.901 165.081 108.926C165.081 109.437 165.05 109.855 165.028 110.141C165.033 110.289 165.015 110.437 164.975 110.581C164.92 110.031 164.901 109.478 164.918 108.926C164.918 107.901 164.87 106.493 164.799 104.931C164.729 103.369 164.632 101.965 164.557 100.971C164.495 100.413 164.464 99.8518 164.465 99.2903Z" fill="#455A64"/>
<path d="M161.508 100.197C161.53 100.227 161.279 100.342 161.208 100.698C161.189 100.795 161.194 100.895 161.224 100.989C161.254 101.083 161.308 101.168 161.38 101.235C161.467 101.316 161.576 101.37 161.693 101.391C161.81 101.412 161.93 101.399 162.04 101.354C162.145 101.299 162.234 101.217 162.294 101.115C162.355 101.013 162.386 100.896 162.383 100.777C162.379 100.679 162.35 100.583 162.298 100.499C162.247 100.415 162.175 100.346 162.088 100.298C161.91 100.211 161.71 100.176 161.512 100.197C161.512 100.197 161.556 100.139 161.67 100.104C161.835 100.064 162.009 100.081 162.163 100.153C162.286 100.204 162.392 100.288 162.47 100.396C162.548 100.504 162.594 100.631 162.603 100.764C162.621 100.928 162.586 101.093 162.505 101.236C162.424 101.38 162.299 101.494 162.15 101.563C162 101.632 161.833 101.652 161.671 101.621C161.509 101.59 161.361 101.509 161.248 101.389C161.155 101.296 161.088 101.179 161.056 101.051C161.025 100.923 161.029 100.789 161.068 100.663C161.112 100.498 161.211 100.354 161.349 100.254C161.437 100.192 161.503 100.183 161.508 100.197Z" fill="#455A64"/>
<path d="M154.468 99.4001C154.533 99.5388 154.573 99.6877 154.587 99.8401C154.658 100.235 154.671 100.638 154.627 101.037C154.563 101.631 154.392 102.208 154.121 102.74C153.793 103.401 153.308 103.972 152.708 104.403C152.108 104.833 151.412 105.11 150.68 105.208C150.094 105.296 149.497 105.273 148.92 105.142C148.529 105.057 148.153 104.917 147.802 104.724C147.67 104.661 147.548 104.578 147.441 104.478C147.928 104.697 148.435 104.866 148.955 104.984C149.581 105.114 150.227 105.113 150.852 104.981C151.478 104.849 152.069 104.588 152.588 104.216C153.108 103.844 153.545 103.368 153.872 102.819C154.198 102.269 154.407 101.658 154.486 101.024C154.538 100.483 154.532 99.9392 154.468 99.4001Z" fill="#455A64"/>
<path d="M171.734 103.255C171.447 103.288 171.156 103.253 170.884 103.153C170.22 102.944 169.623 102.561 169.155 102.045C168.683 101.53 168.36 100.898 168.218 100.214C168.149 99.9354 168.149 99.6438 168.218 99.365C168.258 99.365 168.262 99.6862 168.394 100.179C168.572 100.816 168.897 101.402 169.341 101.892C169.786 102.381 170.338 102.761 170.955 102.999C171.412 103.18 171.738 103.211 171.734 103.255Z" fill="#455A64"/>
<path d="M176.974 146.595C176.753 146.846 176.489 147.056 176.195 147.215C175.886 147.411 175.549 147.559 175.196 147.655C174.752 147.773 174.283 147.761 173.845 147.62C173.077 147.33 172.418 146.807 171.962 146.124C171.753 145.867 171.579 145.583 171.447 145.279C171.685 145.506 171.9 145.755 172.09 146.023C172.557 146.642 173.188 147.119 173.911 147.4C174.281 147.498 174.666 147.521 175.044 147.466C175.423 147.41 175.786 147.279 176.111 147.079C176.389 146.901 176.677 146.739 176.974 146.595Z" fill="#455A64"/>
<path d="M173.611 149.16C173.091 148.621 172.627 148.032 172.225 147.4C171.762 146.812 171.359 146.179 171.02 145.512C171.543 146.049 172.009 146.639 172.41 147.272C172.876 147.857 173.279 148.49 173.611 149.16Z" fill="#455A64"/>
<path d="M151.067 113.52C151.005 113.542 150.851 113.291 150.715 112.952C150.579 112.613 150.521 112.327 150.579 112.301C150.636 112.275 150.794 112.53 150.926 112.869C151.058 113.207 151.124 113.52 151.067 113.52Z" fill="#FAFAFA"/>
<path d="M159.585 114.743C159.519 114.743 159.471 114.528 159.471 114.259C159.471 113.991 159.519 113.771 159.585 113.771C159.651 113.771 159.7 113.991 159.7 114.259C159.7 114.528 159.647 114.743 159.585 114.743Z" fill="#FAFAFA"/>
<path d="M156.082 119.372C156.021 119.372 155.95 119.108 155.928 118.769C155.906 118.43 155.928 118.157 155.999 118.153C156.069 118.149 156.135 118.417 156.157 118.756C156.179 119.095 156.144 119.367 156.082 119.372Z" fill="#FAFAFA"/>
<path d="M149.684 122.76C149.631 122.799 149.451 122.637 149.213 122.469C148.976 122.302 148.773 122.175 148.773 122.113C148.773 122.051 149.064 122.087 149.332 122.28C149.601 122.474 149.737 122.76 149.684 122.76Z" fill="#FAFAFA"/>
<path d="M160.961 127.076C160.909 127.041 160.961 126.852 161.111 126.636C161.261 126.421 161.397 126.297 161.45 126.333C161.503 126.368 161.45 126.561 161.3 126.773C161.151 126.984 161.014 127.111 160.961 127.076Z" fill="#FAFAFA"/>
<path d="M154.001 128.295C153.94 128.295 153.887 127.93 153.887 127.485C153.887 127.041 153.94 126.671 154.001 126.671C154.063 126.671 154.116 127.037 154.116 127.485C154.116 127.934 154.05 128.295 154.001 128.295Z" fill="#FAFAFA"/>
<path d="M151.722 133.232C151.686 133.28 151.458 133.179 151.211 132.999C150.965 132.818 150.771 132.633 150.828 132.581C150.886 132.528 151.097 132.633 151.343 132.814C151.59 132.994 151.761 133.179 151.722 133.232Z" fill="#FAFAFA"/>
<path d="M158.771 134.948C158.797 135.005 158.656 135.124 158.454 135.216C158.251 135.309 158.067 135.331 158.04 135.273C158.014 135.216 158.159 135.097 158.361 135.005C158.564 134.913 158.749 134.891 158.771 134.948Z" fill="#FAFAFA"/>
<path d="M154 143C153.948 143.026 153.719 142.687 153.494 142.239C153.27 141.79 153.134 141.403 153.191 141.359C153.248 141.315 153.477 141.671 153.697 142.12C153.917 142.569 154.04 142.951 154 143Z" fill="#FAFAFA"/>
<path d="M161.776 142.252C161.719 142.221 161.82 141.926 161.996 141.588C162.172 141.249 162.37 141.002 162.436 141.033C162.502 141.064 162.392 141.359 162.211 141.698C162.031 142.036 161.829 142.283 161.776 142.252Z" fill="#FAFAFA"/>
<path d="M158.366 149.067C158.3 149.067 158.309 148.711 158.238 148.297C158.168 147.884 158.062 147.554 158.124 147.523C158.186 147.492 158.397 147.805 158.467 148.262C158.538 148.72 158.428 149.081 158.366 149.067Z" fill="#FAFAFA"/>
<path d="M154.713 152.961C154.669 153.005 154.449 152.838 154.225 152.592C154.001 152.345 153.855 152.112 153.904 152.068C153.952 152.024 154.168 152.191 154.392 152.438C154.617 152.684 154.762 152.917 154.713 152.961Z" fill="#FAFAFA"/>
<path d="M163.576 154.44C163.532 154.396 163.694 154.158 163.941 153.907C164.187 153.657 164.416 153.494 164.464 153.538C164.513 153.582 164.346 153.824 164.104 154.07C163.862 154.317 163.624 154.484 163.576 154.44Z" fill="#FAFAFA"/>
<path d="M158.48 160.27C158.418 160.27 158.418 159.922 158.48 159.517C158.541 159.113 158.638 158.796 158.704 158.805C158.77 158.813 158.766 159.148 158.704 159.553C158.643 159.957 158.541 160.279 158.48 160.27Z" fill="#FAFAFA"/>
<path d="M155.053 163.099C154.996 163.13 154.802 162.901 154.613 162.589C154.424 162.276 154.327 161.999 154.38 161.968C154.432 161.937 154.626 162.162 154.82 162.474C155.013 162.787 155.106 163.064 155.053 163.099Z" fill="#FAFAFA"/>
<path d="M163.312 166.667C163.351 166.72 163.127 166.945 162.81 167.169C162.493 167.393 162.216 167.534 162.176 167.481C162.137 167.429 162.366 167.204 162.678 166.98C162.99 166.755 163.276 166.619 163.312 166.667Z" fill="#FAFAFA"/>
<path d="M156.43 171.301C156.368 171.279 156.43 170.927 156.487 170.487C156.544 170.047 156.509 169.686 156.575 169.677C156.641 169.668 156.756 170.038 156.712 170.509C156.668 170.979 156.487 171.327 156.43 171.301Z" fill="#FAFAFA"/>
<path d="M159.179 177.953C159.126 177.993 158.941 177.843 158.761 177.619C158.58 177.395 158.479 177.179 158.528 177.139C158.576 177.1 158.761 177.249 158.941 177.474C159.122 177.698 159.227 177.914 159.179 177.953Z" fill="#FAFAFA"/>
<path d="M156.174 182.415C156.121 182.45 155.879 182.191 155.632 181.83C155.386 181.469 155.232 181.152 155.28 181.117C155.329 181.082 155.575 181.341 155.822 181.702C156.068 182.063 156.226 182.38 156.174 182.415Z" fill="#FAFAFA"/>
<path d="M164.451 176.814C164.394 176.792 164.399 176.629 164.451 176.453C164.504 176.277 164.623 176.145 164.685 176.167C164.746 176.189 164.737 176.352 164.685 176.532C164.632 176.713 164.513 176.84 164.451 176.814Z" fill="#FAFAFA"/>
<path d="M160.799 187.44C160.742 187.409 160.852 187.097 160.94 186.705C161.028 186.313 161.059 185.983 161.125 185.979C161.191 185.975 161.257 186.331 161.164 186.753C161.072 187.176 160.852 187.475 160.799 187.44Z" fill="#FAFAFA"/>
<path d="M163.175 119.442C163.117 119.469 162.977 119.293 162.862 119.046C162.748 118.8 162.699 118.58 162.757 118.554C162.814 118.527 162.955 118.703 163.069 118.95C163.183 119.196 163.241 119.416 163.175 119.442Z" fill="#FAFAFA"/>
<path d="M157.082 105.741C157.117 105.793 156.809 106.04 156.479 106.392C156.149 106.744 155.925 107.069 155.867 107.039C155.81 107.008 155.96 106.599 156.307 106.238C156.655 105.877 157.038 105.683 157.082 105.741Z" fill="#FAFAFA"/>
<path d="M162.507 105.6C162.441 105.6 162.34 105.349 162.186 105.05C162.032 104.751 161.891 104.504 161.939 104.46C161.988 104.416 162.225 104.61 162.379 104.944C162.533 105.279 162.564 105.565 162.507 105.6Z" fill="#FAFAFA"/>
<path d="M145.567 110.048C145.51 110.022 145.567 109.732 145.703 109.397C145.84 109.063 145.989 108.803 146.051 108.829C146.113 108.856 146.051 109.142 145.915 109.481C145.778 109.82 145.642 110.07 145.567 110.048Z" fill="#FAFAFA"/>
<path d="M146.116 116.692C146.072 116.741 145.821 116.6 145.553 116.375C145.285 116.151 145.113 115.935 145.139 115.883C145.166 115.83 145.434 115.975 145.703 116.199C145.971 116.424 146.156 116.644 146.116 116.692Z" fill="#FAFAFA"/>
<path d="M157.231 100.465C157.174 100.465 157.051 100.324 156.963 100.1C156.875 99.8755 156.848 99.6599 156.905 99.6599C156.963 99.6599 157.086 99.8007 157.174 100.025C157.262 100.25 157.288 100.443 157.231 100.465Z" fill="#FAFAFA"/>
<path d="M167.875 103.712C167.813 103.712 167.817 103.435 167.875 103.123C167.932 102.81 168.046 102.564 168.108 102.577C168.169 102.59 168.165 102.859 168.108 103.171C168.051 103.484 167.936 103.726 167.875 103.712Z" fill="#FAFAFA"/>
<path d="M170.374 108.741C170.317 108.715 170.396 108.389 170.554 108.007C170.713 107.624 170.884 107.338 170.942 107.36C170.999 107.382 170.942 107.712 170.766 108.095C170.59 108.477 170.436 108.763 170.374 108.741Z" fill="#FAFAFA"/>
<path d="M168.591 112.798C168.534 112.825 168.322 112.521 168.12 112.121C167.918 111.72 167.803 111.364 167.86 111.338C167.918 111.311 168.124 111.615 168.327 112.015C168.529 112.416 168.648 112.768 168.591 112.798Z" fill="#FAFAFA"/>
<path d="M172.402 116.855C172.344 116.833 172.402 116.578 172.499 116.287C172.595 115.997 172.749 115.777 172.811 115.799C172.873 115.821 172.811 116.076 172.714 116.367C172.617 116.657 172.481 116.877 172.402 116.855Z" fill="#FAFAFA"/>
<path d="M168.997 120.828C168.944 120.863 168.807 120.745 168.697 120.569C168.587 120.393 168.534 120.217 168.592 120.181C168.649 120.146 168.777 120.265 168.891 120.445C169.005 120.626 169.049 120.797 168.997 120.828Z" fill="#FAFAFA"/>
<path d="M169.721 129.03C169.677 129.069 169.4 128.854 169.109 128.537C168.819 128.22 168.621 127.934 168.669 127.89C168.718 127.846 168.991 128.066 169.281 128.383C169.571 128.7 169.769 128.986 169.721 129.03Z" fill="#FAFAFA"/>
<path d="M174.189 124.317C174.141 124.357 173.899 124.137 173.652 123.82C173.406 123.503 173.247 123.222 173.296 123.182C173.344 123.143 173.586 123.367 173.833 123.679C174.079 123.992 174.242 124.282 174.189 124.317Z" fill="#FAFAFA"/>
<path d="M176.639 130.816C176.582 130.79 176.683 130.46 176.863 130.081C177.044 129.703 177.233 129.413 177.303 129.439C177.374 129.465 177.264 129.8 177.083 130.178C176.903 130.557 176.696 130.847 176.639 130.816Z" fill="#FAFAFA"/>
<path d="M171.429 136.167C171.372 136.198 171.169 135.956 170.888 135.696C170.606 135.436 170.347 135.256 170.373 135.19C170.399 135.124 170.734 135.243 171.042 135.529C171.35 135.815 171.482 136.136 171.429 136.167Z" fill="#FAFAFA"/>
<path d="M171.756 141.68C171.756 141.741 171.536 141.794 171.267 141.794C170.999 141.794 170.783 141.741 170.783 141.68C170.783 141.618 170.999 141.565 171.267 141.565C171.536 141.565 171.756 141.618 171.756 141.68Z" fill="#FAFAFA"/>
<path d="M177.109 140.14C177.052 140.109 177.166 139.832 177.25 139.489C177.334 139.145 177.369 138.846 177.435 138.842C177.501 138.837 177.571 139.159 177.474 139.541C177.378 139.924 177.158 140.175 177.109 140.14Z" fill="#FAFAFA"/>
<path d="M182.429 141.992C182.372 142.014 182.209 141.702 182.069 141.301C181.928 140.901 181.862 140.558 181.919 140.54C181.976 140.523 182.143 140.826 182.284 141.227C182.425 141.627 182.491 141.97 182.429 141.992Z" fill="#FAFAFA"/>
<path d="M181.58 149.56C181.527 149.529 181.663 149.16 181.883 148.733C182.103 148.306 182.323 147.985 182.389 148.016C182.455 148.047 182.31 148.416 182.086 148.839C181.861 149.261 181.637 149.6 181.58 149.56Z" fill="#FAFAFA"/>
<path d="M176.728 154C176.67 154.022 176.49 153.718 176.323 153.318C176.156 152.917 176.072 152.574 176.134 152.548C176.195 152.521 176.371 152.829 176.534 153.23C176.697 153.63 176.785 154 176.728 154Z" fill="#FAFAFA"/>
<path d="M171.349 155.72C171.349 155.782 171.164 155.835 170.94 155.835C170.716 155.835 170.535 155.782 170.535 155.72C170.535 155.659 170.72 155.606 170.94 155.606C171.16 155.606 171.349 155.659 171.349 155.72Z" fill="#FAFAFA"/>
<path d="M174.43 162.8C174.372 162.8 174.249 162.558 174.157 162.223C174.064 161.889 174.047 161.599 174.108 161.585C174.17 161.572 174.289 161.827 174.381 162.162C174.474 162.496 174.491 162.765 174.43 162.8Z" fill="#FAFAFA"/>
<path d="M170.536 160.424C170.483 160.393 170.536 160.186 170.681 159.962C170.826 159.737 170.971 159.583 171.024 159.614C171.077 159.645 171.024 159.856 170.879 160.081C170.734 160.305 170.593 160.459 170.536 160.424Z" fill="#FAFAFA"/>
<path d="M170.458 168.216C170.396 168.216 170.308 167.921 170.264 167.539C170.22 167.156 170.233 166.843 170.295 166.835C170.357 166.826 170.445 167.129 170.489 167.512C170.533 167.895 170.519 168.207 170.458 168.216Z" fill="#FAFAFA"/>
</svg>
